<?xml version="1.0" encoding="utf-8" ?><svg xmlns="http://www.w3.org/2000/svg" xmlns:xlink="http://www.w3.org/1999/xlink" width="1024" height="1024" viewBox="0 0 1024 1024"><path fill="#0365FE" d="M357.488 189.612C366.29 188.705 386.188 189.293 395.927 189.3L472.213 189.329L563.968 189.315C607.251 189.3 638.281 186.661 678.19 207.611C720.564 230.325 752.104 269.03 765.794 315.117C779.801 360.798 775.553 414.8 752.912 457.087C731.481 497.258 694.959 527.262 651.392 540.489C624.811 547.237 610.782 546.01 583.711 546.003L532.277 545.976C493.852 545.948 502.076 543.436 469.693 564.425L392.515 614.488L368.232 630.205C360.951 634.882 349.799 644.299 341.075 639.745C331.778 634.891 334.213 623.412 333.935 614.764C333.756 609.189 333.934 603.368 333.936 597.778L333.952 514.613L333.9 313.903L333.86 249.947C333.852 238.694 333.791 227.417 333.933 216.168C334.131 200.543 343.141 192.676 357.488 189.612Z"/><path fill="#FEFEFE" d="M640.535 283.623C653.994 283.019 669.929 297.932 670.935 311.479C671.495 319.02 668.669 324.392 663.522 329.692C653.487 340.023 643.275 350.322 633.13 360.618L571.97 422.748L528.577 466.848C521.941 473.522 514.705 481.355 507.887 487.237C498.096 495.683 483.884 488.844 476.793 480.3C474.468 477.498 470.753 474.217 468.171 471.607L446.734 450.085C441.43 444.802 436.08 439.538 430.825 434.232C424.575 427.921 416.931 421.947 416.719 412.272C416.562 405.136 419.547 399.888 424.378 394.952C430.407 388.671 436.283 382.654 445.62 382.507C456.573 382.335 465.322 393.832 472.606 401.158L495.376 424.084C523.104 395.556 551.015 367.207 579.108 339.039L611.975 305.661C617.756 299.814 623.77 293.431 629.921 288.02C633.088 285.234 636.529 284.41 640.535 283.623Z"/><path fill="#00BDD7" d="M500.692 575.544C501.997 573.673 503.438 571.702 505.52 570.635C509.936 568.375 548.98 568.38 553.591 569.943C556.615 570.968 558.419 572.588 559.906 575.381C561.669 580.186 560.981 600.183 560.988 606.728L561.009 657.442L561.037 713.281C561.038 720.815 561.894 745.185 559.497 750.204C555.098 756.09 548.829 754.929 542.152 754.99C531.564 755.087 520.914 755.097 510.334 754.826C505.614 754.706 503.794 752.801 500.911 749.412C499.643 743.721 500.099 725.583 500.096 719.083L500.079 662.324L500.037 605.681C500.034 598.698 499.617 581.46 500.692 575.544Z"/><path fill="#00ABCE" d="M559.906 575.381C561.669 580.186 560.981 600.183 560.988 606.728L561.009 657.442L561.037 713.281C561.038 720.815 561.894 745.185 559.497 750.204C558.999 747.985 559.535 744.8 559.543 742.105L559.943 708.626L559.906 575.381Z"/><path fill="#0BD896" d="M478.945 749.147C477.368 752.698 473.314 754.9 469.507 754.848C455.226 754.651 440.579 755.561 426.37 754.652C421.42 754.335 417.372 749.915 417.478 745.066C417.084 728.767 417.281 712.357 417.285 696.018L417.305 655.822C417.311 648.052 416.137 636.789 418.267 629.545C419.879 624.062 455.472 602.979 462.53 598.937C465.842 597.041 470.112 595.312 473.961 596.494C476.434 597.253 477.832 599.072 478.986 601.273C480.974 607.226 479.986 658.362 479.989 667.724L479.993 717.054C479.992 723.353 480.666 744.267 478.945 749.147Z"/><path fill="#02BFA4" d="M478.986 601.273C480.974 607.226 479.986 658.362 479.989 667.724L479.993 717.054C479.992 723.353 480.666 744.267 478.945 749.147C478.566 745.048 478.872 735.1 478.894 730.691L479.012 694.084L479.089 628.813C479.099 619.85 478.732 610.064 478.986 601.273Z"/><path fill="#0BD896" d="M390.342 645.045C399.641 644.748 397.235 655.258 397.221 662.066L397.235 684.573C397.248 703.871 397.296 723.276 397.129 742.473C397.062 755.578 387.938 755.15 377.735 754.978C366.173 754.783 354.428 755.318 342.904 754.688C339.883 753.707 337.105 752.277 335.598 749.322C333.168 744.556 333.181 686.614 335.334 681.433C336.186 679.381 338.476 677.601 340.205 676.265C346.892 671.097 354.641 666.769 361.778 662.223C370.85 656.445 380.431 649.088 390.342 645.045Z"/></svg>